<svg width="40" height="40" viewBox="0 0 24 24" fill="none" xmlns="http://www.w3.org/2000/svg">
<path d="M11 7C15.418 7 19 7.895 19 9C19 10.105 15.418 11 11 11C6.582 11 3 10.105 3 9C3 8.643 3.375 8.307 4.033 8.016" stroke="#F8F8F8" stroke-width="2" stroke-linecap="round" stroke-linejoin="round"/>
<path d="M3 9V18.343C3 19.404 3.44 20.423 4.409 20.856C5.624 21.399 7.711 22 11 22C14.29 22 16.377 21.399 17.591 20.856C18.559 20.423 19 19.404 19 18.343V9M19 10C19.7956 10 20.5587 10.3161 21.1213 10.8787C21.6839 11.4413 22 12.2044 22 13C22 13.7956 21.6839 14.5587 21.1213 15.1213C20.5587 15.6839 19.7956 16 19 16M7 3V7M11 2V4M15 4V7" stroke="#F8F8F8" stroke-width="2" stroke-linecap="round" stroke-linejoin="round"/>
</svg>
