<svg width="46" height="46" viewBox="0 0 46 46" fill="none" xmlns="http://www.w3.org/2000/svg">
<circle cx="23" cy="23" r="23" fill="#9A49FF"/>
<path d="M21.044 25.94C20.3507 26.1533 19.6107 26.0833 18.824 25.73C18.044 25.3767 17.4707 24.8967 17.104 24.29C16.8374 23.8433 16.6707 23.3733 16.604 22.88C16.544 22.3867 16.5707 21.96 16.684 21.6C16.804 21.2333 16.9874 20.86 17.234 20.48C17.4807 20.1 17.7707 19.7767 18.104 19.51C18.4707 19.23 18.864 19.03 19.284 18.91C19.7107 18.79 20.144 18.76 20.584 18.82C21.0307 18.88 21.4774 19.0633 21.924 19.37C22.3774 19.67 22.7874 20.0867 23.154 20.62C23.234 20.7333 23.2607 20.86 23.234 21C23.2074 21.1333 23.134 21.24 23.014 21.32C22.9007 21.4 22.7774 21.4267 22.644 21.4C22.5107 21.3733 22.404 21.3033 22.324 21.19C22.0374 20.7767 21.7274 20.4567 21.394 20.23C21.0674 19.9967 20.7474 19.8633 20.434 19.83C20.1207 19.79 19.8207 19.81 19.534 19.89C19.2607 19.9767 18.994 20.12 18.734 20.32C18.3807 20.5933 18.104 20.9233 17.904 21.31C17.704 21.6433 17.604 22.03 17.604 22.47C17.604 22.91 17.7274 23.34 17.974 23.76C18.234 24.1933 18.6474 24.5367 19.214 24.79C19.7874 25.0433 20.3007 25.1033 20.754 24.97C21.1674 24.8433 21.5007 24.6033 21.754 24.25C22.014 23.89 22.1407 23.4967 22.134 23.07C21.5474 23.0767 20.914 23.0967 20.234 23.13C20.1007 23.1367 19.9807 23.0933 19.874 23C19.774 22.9067 19.7207 22.79 19.714 22.65C19.7074 22.51 19.7507 22.3867 19.844 22.28C19.9374 22.1733 20.054 22.1167 20.194 22.11C21.0407 22.07 21.8474 22.05 22.614 22.05C22.754 22.05 22.874 22.1 22.974 22.2C23.074 22.3 23.124 22.42 23.124 22.56V22.63C23.2374 23.35 23.094 24.03 22.694 24.67C22.3007 25.3033 21.7507 25.7267 21.044 25.94ZM28.454 26.02C27.5874 26.0333 26.9707 26.03 26.604 26.01C26.4774 26.0033 26.3674 25.9567 26.274 25.87C26.1807 25.7767 26.1307 25.6633 26.124 25.53C26.1174 25.4967 26.114 25.4667 26.114 25.44C26.1074 25.06 26.0907 24.1633 26.064 22.75C26.0374 21.3367 26.024 20.1833 26.024 19.29C26.024 19.15 26.0707 19.0333 26.164 18.94C26.264 18.84 26.384 18.79 26.524 18.79C26.664 18.79 26.7807 18.84 26.874 18.94C26.974 19.0333 27.024 19.15 27.024 19.29C27.024 19.9633 27.0274 20.61 27.034 21.23C27.0474 21.85 27.0607 22.5333 27.074 23.28C27.094 24.02 27.104 24.6 27.104 25.02C27.4507 25.0267 27.9807 25.0233 28.694 25.01C29.414 24.9967 29.9607 24.9933 30.334 25C30.474 25 30.5907 25.05 30.684 25.15C30.7774 25.25 30.824 25.37 30.824 25.51C30.824 25.65 30.774 25.7667 30.674 25.86C30.574 25.9533 30.454 26 30.314 26C29.954 25.9933 29.334 26 28.454 26.02Z" fill="white"/>
</svg>
